# xmcd CD database file
#
# Track frame offsets:
#	150
#	8840
#	33007
#	54487
#	73577
#	90850
#	111800
#	131315
#	146512
#	170887
#
# Disc length: 2518 seconds
#
# Revision: 1
# Processed by: cddbd v1.5.2PL0 Copyright (c) Steve Scherf et al.
# Submitted via: CDex 1.70beta3
#
DISCID=7909d40a
DTITLE=The d.e.p - 地球的病気 -We are the d.e.p-
DYEAR=2001
DGENRE=New Age
TTITLE0=What is the question
TTITLE1=良薬苦口
TTITLE2=蜂蜜色の宙
TTITLE3=Mr. No Problem
TTITLE4=run and cry
TTITLE5=Frozen Tears
TTITLE6=地球のいい子
TTITLE7=Spider's Life
TTITLE8=太陽と月
TTITLE9=想要Happy
EXTD=YEAR: 2001
EXTT0=
EXTT1=
EXTT2=
EXTT3=
EXTT4=
EXTT5=
EXTT6=
EXTT7=
EXTT8=
EXTT9=
PLAYORDER=
